<?xml version="1.0" ?><svg viewBox="0 0 512 512" xmlns="http://www.w3.org/2000/svg"><g id="Dress_Code"><path d="M401.0479,411.6123,313.792,245.72a57.7874,57.7874,0,0,1,4.6338-58.7231c12.8887-18.313,12.5107-39.168,12.1445-59.336-.0557-3.0708-.1133-6.2373-.123-9.3588l9.8164-45.2051a7.999,7.999,0,0,0-7.8174-9.6978H294.9326a8.0006,8.0006,0,0,0-7.8418,6.4165l-7.0342,34.8365-24.05,23.0844-24.1533-23.2407-6.9414-34.6675a8.0012,8.0012,0,0,0-7.8447-6.4292H179.5537a7.999,7.999,0,0,0-7.8174,9.6978l9.8164,45.2051c-.01,3.1215-.0673,6.288-.123,9.3588-.3662,20.168-.7442,41.023,12.1445,59.336A57.7874,57.7874,0,0,1,198.208,245.72L110.9521,411.6123a8,8,0,0,0,4.4258,11.271l9.4336,3.3184a396.7434,396.7434,0,0,0,262.377,0l9.4336-3.3184a8,8,0,0,0,4.4258-11.271Zm-188.629-158.541c.0332-.063.0655-.126.0967-.19a73.7776,73.7776,0,0,0-5.8574-75.0942c-9.8809-14.0391-9.5791-30.6279-9.2305-49.8364.0616-3.4224.126-6.961.126-10.502a8.0007,8.0007,0,0,0-.1826-1.6977l-7.8936-36.3526h21.0332l6.1455,30.6949a7.998,7.998,0,0,0,2.2979,4.1938l31.499,30.3091a8.0007,8.0007,0,0,0,11.0869.0068l31.4024-30.1426a7.9993,7.9993,0,0,0,2.3017-4.188l6.2344-30.874h21.044l-7.8936,36.3526a8.0007,8.0007,0,0,0-.1826,1.6977c0,3.541.0644,7.08.126,10.502.3486,19.2085.65,35.7973-9.2305,49.8364a73.7776,73.7776,0,0,0-5.8574,75.0942c.0312.0635.0635.1265.0967.19l68.2374,129.7343a413.1876,413.1876,0,0,1-223.637,0Z"/><circle cx="256" cy="174.3797" r="10.4849"/><circle cx="256" cy="204.5796" r="10.4849"/></g></svg>