<?xml version="1.0" encoding="iso-8859-1"?>
<!-- Generator: Adobe Illustrator 16.0.0, SVG Export Plug-In . SVG Version: 6.00 Build 0)  -->
<!DOCTYPE svg PUBLIC "-//W3C//DTD SVG 1.1//EN" "http://www.w3.org/Graphics/SVG/1.1/DTD/svg11.dtd">
<svg version="1.1" id="Capa_1" xmlns="http://www.w3.org/2000/svg" xmlns:xlink="http://www.w3.org/1999/xlink" x="0px" y="0px"
	 width="497.25px" height="497.25px" viewBox="0 0 497.25 497.25" style="enable-background:new 0 0 497.25 497.25;"
	 xml:space="preserve">
<g>
	<g>
		<path d="M11.476,485.775L11.476,485.775L11.476,485.775L11.476,485.775z"/>
		<path d="M363.375,57.375c-42.075,0-76.5,34.425-76.5,76.5s34.425,76.5,76.5,76.5s76.5-34.425,76.5-76.5
			S405.45,57.375,363.375,57.375z M363.375,191.25c-32.513,0-57.375-24.862-57.375-57.375S330.862,76.5,363.375,76.5
			s57.375,24.862,57.375,57.375S395.888,191.25,363.375,191.25z"/>
		<path d="M363.375,0C288.787,0,229.5,59.288,229.5,133.875c0,22.95,5.737,43.987,15.3,61.2L11.476,428.4
			c-15.3,15.3-15.3,42.074,0,57.375c15.3,15.3,42.075,15.3,57.375,0l36.337-36.338L153,497.25l57.375-57.375l-47.812-47.812
			l28.688-28.688l38.25,38.25l57.375-57.375L248.625,306l53.549-53.55c19.125,9.562,40.163,15.3,61.2,15.3
			c74.588,0,133.875-59.288,133.875-133.875S437.963,0,363.375,0z M363.375,248.625c-24.862,0-45.9-7.65-65.025-19.125L219.938,306
			l38.25,38.25L229.5,372.938l-38.25-38.25l-57.375,57.375l47.812,47.812L153,468.562l-47.812-47.812l-49.725,49.725
			c-7.65,7.65-21.038,7.65-30.6,0l0,0c-7.65-7.649-7.65-21.037,0-30.6L267.75,198.9c-13.388-19.125-19.125-40.163-19.125-65.025
			c0-63.112,51.637-114.75,114.75-114.75s114.75,51.638,114.75,114.75S426.487,248.625,363.375,248.625z"/>
	</g>
</g>
<g>
</g>
<g>
</g>
<g>
</g>
<g>
</g>
<g>
</g>
<g>
</g>
<g>
</g>
<g>
</g>
<g>
</g>
<g>
</g>
<g>
</g>
<g>
</g>
<g>
</g>
<g>
</g>
<g>
</g>
</svg>
