<?xml version="1.0" encoding="UTF-8"?>
<svg id="Layer_1" data-name="Layer 1" xmlns="http://www.w3.org/2000/svg" viewBox="0 0 1885.32 2166.68">
  <defs>
    <style>
      .cls-1 {
        fill: #7e5723;
      }

      .cls-2 {
        fill: #5c482a;
      }

      .cls-3 {
        fill: #5c5c5c;
      }

      .cls-4 {
        fill: #84674f;
      }

      .cls-5 {
        fill: #e2d6c6;
      }

      .cls-6 {
        fill: #bab0a5;
      }

      .cls-7 {
        fill: #614c3e;
      }

      .cls-8 {
        fill: #8c5a24;
      }

      .cls-9 {
        fill: #4a494a;
      }

      .cls-10 {
        fill: #ceb79d;
      }

      .cls-11 {
        fill: #f9f4f1;
      }
    </style>
  </defs>
  <g>
    <polygon class="cls-11" points="170.25 1577.2 0 1451.02 0 973.92 164.02 855.63 170.25 1577.2"/>
    <polygon class="cls-1" points="431.86 1786.18 170.25 1577.2 168.18 1358.36 431.86 1508.2 431.86 1786.18"/>
    <polygon class="cls-6" points="431.86 1508.2 168.18 1358.36 168.18 1269.65 309.36 1374.13 309.36 1297.25 431.86 1387.94 431.86 1508.2"/>
    <polygon class="cls-2" points="431.86 1384.21 431.86 1387.94 340.51 1316.96 431.86 1384.21"/>
    <polygon class="cls-2" points="431.86 1261.76 431.86 1387.94 338.43 1318.93 317.67 1299.22 317.67 1173.04 431.86 1261.76"/>
    <polygon class="cls-2" points="321.82 1175.01 321.82 1301.19 232.54 1244.02 232.54 1216.41 301.06 1167.13 321.82 1175.01"/>
    <polygon class="cls-5" points="527.37 962.09 527.37 1454.97 431.86 1384.21 431.86 1261.76 317.67 1173.04 301.06 1167.13 232.54 1216.41 232.54 1244.02 317.67 1299.22 340.51 1316.96 309.36 1374.13 168.18 1269.65 164.02 855.63 263.69 778.74 527.37 962.09"/>
    <polygon class="cls-8" points="691.4 926.6 367.5 697.91 263.69 778.74 691.4 1076.44 691.4 926.6"/>
    <polygon class="cls-10" points="815.97 867.46 477.54 615.11 367.5 697.91 691.4 926.6 815.97 867.46"/>
    <polygon class="cls-5" points="815.97 1167.13 691.4 1076.44 691.4 926.6 815.97 867.46 815.97 1167.13"/>
    <polygon class="cls-3" points="942.62 966.03 815.97 875.35 815.97 1167.13 942.62 1255.84 942.62 966.03"/>
    <polygon class="cls-10" points="942.62 285.87 815.97 366.7 815.97 875.35 942.62 964.06 942.62 285.87"/>
    <polygon class="cls-4" points="735 688.05 508.68 514.56 508.68 329.24 735 421.9 735 688.05"/>
    <polygon class="cls-7" points="942.62 285.87 942.62 0 508.68 329.24 735 421.9 942.62 285.87"/>
    <polygon class="cls-11" points="942.62 1334.7 527.37 1056.72 527.37 962.09 942.62 1251.9 942.62 1334.7"/>
    <polygon class="cls-9" points="942.62 1460.88 527.37 1175.01 527.37 1056.72 942.62 1334.7 942.62 1460.88"/>
    <path class="cls-11" d="M857.5,1900.52v-391.32l85.13,56.17v-104.49l-415.25-285.87v116.32l-2.08,579.62,143.26,104.49v-.53l99.66,69.53v-.53l89.28,61.65,87.2,61.12v-207.01l-87.2-59.14Zm-89.28-449.5v-.75l1.14,.75h-1.14Z"/>
    <polygon class="cls-5" points="944.7 1961.64 857.5 1902.5 857.5 1510.17 942.62 1565.37 944.7 1961.64"/>
  </g>
  <g>
    <polygon class="cls-11" points="1715.07 1577.2 1885.32 1451.02 1885.32 973.92 1721.3 855.63 1715.07 1577.2"/>
    <polygon class="cls-1" points="1453.46 1786.18 1715.07 1577.2 1717.15 1358.36 1453.46 1508.2 1453.46 1786.18"/>
    <polygon class="cls-6" points="1453.46 1508.2 1717.15 1358.36 1717.15 1269.65 1575.96 1374.13 1575.96 1297.25 1453.46 1387.94 1453.46 1508.2"/>
    <polygon class="cls-2" points="1453.46 1384.21 1453.46 1387.94 1544.82 1316.96 1453.46 1384.21"/>
    <polygon class="cls-2" points="1453.46 1261.76 1453.46 1387.94 1546.89 1318.93 1567.65 1299.22 1567.65 1173.04 1453.46 1261.76"/>
    <polygon class="cls-2" points="1563.5 1175.01 1563.5 1301.19 1652.78 1244.02 1652.78 1216.41 1584.26 1167.13 1563.5 1175.01"/>
    <polygon class="cls-5" points="1357.95 962.09 1357.95 1454.97 1453.46 1384.21 1453.46 1261.76 1567.65 1173.04 1584.26 1167.13 1652.78 1216.41 1652.78 1244.02 1567.65 1299.22 1544.82 1316.96 1575.96 1374.13 1717.15 1269.65 1721.3 855.63 1621.64 778.74 1357.95 962.09"/>
    <polygon class="cls-8" points="1193.93 926.6 1517.82 697.91 1621.64 778.74 1193.93 1076.44 1193.93 926.6"/>
    <polygon class="cls-10" points="1069.35 867.46 1407.78 615.11 1517.82 697.91 1193.93 926.6 1069.35 867.46"/>
    <polygon class="cls-5" points="1069.35 1167.13 1193.93 1076.44 1193.93 926.6 1069.35 867.46 1069.35 1167.13"/>
    <polygon class="cls-3" points="942.7 966.03 1069.35 875.35 1069.35 1167.13 942.7 1255.84 942.7 966.03"/>
    <polygon class="cls-10" points="942.7 285.87 1069.35 366.7 1069.35 875.35 942.7 964.06 942.7 285.87"/>
    <polygon class="cls-4" points="1150.33 688.05 1376.64 514.56 1376.64 329.24 1150.33 421.9 1150.33 688.05"/>
    <polygon class="cls-7" points="942.7 285.87 942.7 0 1376.64 329.24 1150.33 421.9 942.7 285.87"/>
    <polygon class="cls-11" points="942.7 1334.7 1357.95 1056.72 1357.95 962.09 942.7 1251.9 942.7 1334.7"/>
    <polygon class="cls-9" points="942.7 1460.88 1357.95 1175.01 1357.95 1056.72 942.7 1334.7 942.7 1460.88"/>
    <path class="cls-11" d="M940.62,1959.67v207.01s87.2-61.12,87.2-61.12l89.28-61.65v.53s99.66-69.53,99.66-69.53v.53s143.26-104.49,143.26-104.49l-2.08-579.62v-116.32s-415.25,285.87-415.25,285.87v104.49s85.13-56.17,85.13-56.17v391.32s-87.2,59.14-87.2,59.14Zm175.34-508.65l1.14-.75v.75h-1.14Z"/>
    <polygon class="cls-5" points="940.62 1961.64 1027.83 1902.5 1027.83 1510.17 942.7 1565.37 940.62 1961.64"/>
  </g>
</svg>